<svg width="0" height="0" class="hidden">
  <symbol fill="none" xmlns="http://www.w3.org/2000/svg" viewBox="0 0 34 33" id="facebook">
    <path d="M31.7304 0.48291H2.27131C1.56285 0.48291 0.990479 1.05528 0.990479 1.76374V31.2229C0.990479 31.9313 1.56285 32.5037 2.27131 32.5037H31.7304C32.4389 32.5037 33.0113 31.9313 33.0113 31.2229V1.76374C33.0113 1.05528 32.4389 0.48291 31.7304 0.48291ZM28.032 9.82897H25.4744C23.4691 9.82897 23.0808 10.7816 23.0808 12.1825V15.2685H27.8679L27.2435 20.0996H23.0808V32.5037H18.0896V20.1036H13.9149V15.2685H18.0896V11.7062C18.0896 7.57151 20.6152 5.31805 24.3056 5.31805C26.0748 5.31805 27.5917 5.45013 28.036 5.51017V9.82897H28.032Z" fill="#FF5722"></path>
  </symbol>
  <symbol fill="none" xmlns="http://www.w3.org/2000/svg" viewBox="0 0 27 22" id="email">
    <path d="M25.8125 0.601562H1.4375C0.918945 0.601562 0.5 1.02051 0.5 1.53906V20.2891C0.5 20.8076 0.918945 21.2266 1.4375 21.2266H25.8125C26.3311 21.2266 26.75 20.8076 26.75 20.2891V1.53906C26.75 1.02051 26.3311 0.601562 25.8125 0.601562ZM24.6406 3.84766V19.1172H2.60938V3.84766L1.80078 3.21777L2.95215 1.73828L4.20605 2.71387H23.0469L24.3008 1.73828L25.4521 3.21777L24.6406 3.84766ZM23.0469 2.71094L13.625 10.0352L4.20312 2.71094L2.94922 1.73535L1.79785 3.21484L2.60645 3.84473L12.6143 11.626C12.9021 11.8496 13.2561 11.9709 13.6206 11.9709C13.9851 11.9709 14.3391 11.8496 14.627 11.626L24.6406 3.84766L25.4492 3.21777L24.2979 1.73828L23.0469 2.71094Z" fill="#FF5722"></path>
  </symbol>
  <symbol fill="none" xmlns="http://www.w3.org/2000/svg" viewBox="0 0 33 33" id="linkdin">
    <path d="M31.7182 0.48291H2.2591C1.55064 0.48291 0.978271 1.05528 0.978271 1.76374V31.2229C0.978271 31.9313 1.55064 32.5037 2.2591 32.5037H31.7182C32.4267 32.5037 32.999 31.9313 32.999 31.2229V1.76374C32.999 1.05528 32.4267 0.48291 31.7182 0.48291ZM10.4764 27.7686H5.72535V12.4867H10.4764V27.7686ZM8.10289 10.3973C7.55825 10.3973 7.02583 10.2358 6.57297 9.93325C6.12011 9.63066 5.76715 9.20057 5.55873 8.69738C5.3503 8.1942 5.29577 7.6405 5.40202 7.10632C5.50828 6.57214 5.77055 6.08146 6.15567 5.69634C6.5408 5.31121 7.03148 5.04894 7.56566 4.94268C8.09984 4.83643 8.65353 4.89096 9.15672 5.09939C9.65991 5.30782 10.09 5.66078 10.3926 6.11363C10.6952 6.56649 10.8567 7.09891 10.8567 7.64356C10.8527 9.16454 9.61988 10.3973 8.10289 10.3973ZM28.264 27.7686H23.5169V20.3358C23.5169 18.5626 23.4849 16.2852 21.0473 16.2852C18.5777 16.2852 18.1974 18.2144 18.1974 20.2077V27.7686H13.4544V12.4867H18.0093V14.5761H18.0734C18.7058 13.3753 20.2548 12.1065 22.5683 12.1065C27.3794 12.1065 28.264 15.2725 28.264 19.3872V27.7686V27.7686Z" fill="#FF5722"></path>
  </symbol>
  <symbol fill="none" xmlns="http://www.w3.org/2000/svg" viewBox="0 0 23 28" id="location">
    <g clip-path="url(#clip0_20_1810)">
      <path d="M11.4999 17.0859C14.4553 17.0859 16.8588 14.6893 16.8588 11.7422C16.8588 8.79511 14.4553 6.39844 11.4999 6.39844C8.54438 6.39844 6.14088 8.79511 6.14088 11.7422C6.14088 14.6893 8.54438 17.0859 11.4999 17.0859ZM11.4999 9.07031C12.9776 9.07031 14.1793 10.2686 14.1793 11.7422C14.1793 13.2157 12.9776 14.4141 11.4999 14.4141C10.0221 14.4141 8.82037 13.2157 8.82037 11.7422C8.82037 10.2686 10.0221 9.07031 11.4999 9.07031Z" fill="#FF5722"></path>
      <path d="M10.4412 27.5249C10.6679 27.6864 10.9396 27.7732 11.2182 27.7732C11.4969 27.7732 11.7685 27.6864 11.9953 27.5249C12.4026 27.2377 21.975 20.3456 21.9362 11.7422C21.9362 5.84937 17.1278 1.05469 11.2182 1.05469C5.30861 1.05469 0.500271 5.84937 0.500271 11.7355C0.461418 20.3456 10.0339 27.2377 10.4412 27.5249ZM11.2182 3.72656C15.6514 3.72656 19.2567 7.32157 19.2567 11.7489C19.2848 17.6778 13.3779 23.0015 11.2182 24.7475C9.05989 23.0001 3.15162 17.6751 3.17976 11.7422C3.17976 7.32157 6.78501 3.72656 11.2182 3.72656Z" fill="#FF5722"></path>
    </g>
    <defs>
      <clipPath id="clip0_20_1810">
        <rect width="22" height="27" fill="white" transform="translate(0.5 0.914062)"></rect>
      </clipPath>
    </defs>
  </symbol>
  <symbol fill="none" xmlns="http://www.w3.org/2000/svg" viewBox="0 0 16 27" id="mobile">
    <path d="M12.2223 0.675049H3.33346C1.48901 0.675049 0.00012207 2.22689 0.00012207 4.14931V22.6787C0.00012207 24.6012 1.48901 26.153 3.33346 26.153H12.2223C14.0668 26.153 15.5557 24.6012 15.5557 22.6787V4.14931C15.5557 2.22689 14.0668 0.675049 12.2223 0.675049ZM10.0001 23.8368H5.55568V22.6787H10.0001V23.8368ZM13.6112 20.3625H1.94457V4.14931H13.6112V20.3625Z" fill="#FF5722"></path>
  </symbol>
  <symbol fill="none" xmlns="http://www.w3.org/2000/svg" viewBox="0 0 34 29" id="twiter">
    <path d="M33.6651 4.17846C32.4403 4.7068 31.1074 5.08705 29.7346 5.23514C31.1599 4.38834 32.2273 3.05052 32.7365 1.4727C31.399 2.26837 29.9337 2.82631 28.4057 3.12177C27.7671 2.43903 26.9947 1.89514 26.1366 1.52396C25.2786 1.15279 24.3533 0.962307 23.4185 0.964372C19.636 0.964372 16.594 4.03036 16.594 7.7928C16.594 8.32115 16.6581 8.84949 16.7621 9.35782C11.0985 9.06163 6.04719 6.35587 2.68901 2.21318C2.07711 3.25832 1.75646 4.44834 1.76041 5.65942C1.76041 8.02896 2.96519 10.1183 4.80238 11.3471C3.71969 11.3045 2.66236 11.0069 1.71638 10.4785V10.5626C1.71638 13.8808 4.0619 16.6305 7.18793 17.2629C6.60098 17.4154 5.99718 17.4934 5.39076 17.4951C4.94647 17.4951 4.5262 17.4511 4.10192 17.391C4.96649 20.0968 7.48412 22.0621 10.4821 22.1261C8.13654 23.9633 5.19864 25.044 2.00857 25.044C1.4362 25.044 0.907853 25.024 0.359497 24.9599C3.38546 26.9012 6.97579 28.0219 10.8423 28.0219C23.3944 28.0219 30.2629 17.6232 30.2629 8.59733C30.2629 8.30113 30.2629 8.00494 30.2429 7.70875C31.5717 6.73612 32.7365 5.53134 33.6651 4.17846Z" fill="#FF5722"></path>
  </symbol>
</svg>